<svg xmlns="http://www.w3.org/2000/svg" viewBox="0 0 512 512" role="img" aria-label="Beanz Treats mascot">
  <defs>
    <linearGradient id="fur" x1="0%" y1="0%" x2="100%" y2="100%">
      <stop offset="0%" stop-color="#c68652"/>
      <stop offset="100%" stop-color="#8b5e3c"/>
    </linearGradient>
    <linearGradient id="cream" x1="0%" y1="0%" x2="0%" y2="100%">
      <stop offset="0%" stop-color="#fffaf3"/>
      <stop offset="100%" stop-color="#f1ead0"/>
    </linearGradient>
  </defs>
  <rect width="512" height="512" rx="48" fill="url(#cream)"/>
  <ellipse cx="256" cy="300" rx="150" ry="120" fill="url(#fur)" stroke="#5a3d28" stroke-width="6"/>
  <path d="M120 250c-18-70 30-120 80-130 36-7 56 10 56 10s20-17 56-10c50 10 98 60 80 130" fill="url(#fur)" stroke="#5a3d28" stroke-width="6"/>
  <path d="M196 150c0-36 27-64 60-64s60 28 60 64" fill="#f9f9f9" stroke="#5a3d28" stroke-width="6"/>
  <path d="M176 118c12-28 40-42 80-42s68 14 80 42" fill="none" stroke="#5a3d28" stroke-width="6" stroke-linecap="round"/>
  <ellipse cx="206" cy="250" rx="34" ry="42" fill="#fffaf3" stroke="#5a3d28" stroke-width="5"/>
  <ellipse cx="306" cy="250" rx="34" ry="42" fill="#fffaf3" stroke="#5a3d28" stroke-width="5"/>
  <circle cx="206" cy="255" r="18" fill="#1c1c1c"/>
  <circle cx="306" cy="255" r="18" fill="#1c1c1c"/>
  <circle cx="200" cy="248" r="6" fill="#f1c84b"/>
  <circle cx="300" cy="248" r="6" fill="#f1c84b"/>
  <ellipse cx="256" cy="292" rx="12" ry="9" fill="#f4a7b9"/>
  <path d="M244 308c8 10 16 10 24 0" fill="none" stroke="#5a3d28" stroke-width="5" stroke-linecap="round"/>
  <ellipse cx="188" cy="286" rx="16" ry="10" fill="#f4a7b9" opacity="0.65"/>
  <ellipse cx="324" cy="286" rx="16" ry="10" fill="#f4a7b9" opacity="0.65"/>
  <path d="M150 300c-34 40-34 92 0 132" fill="none" stroke="#5a3d28" stroke-width="6" stroke-linecap="round"/>
  <path d="M362 300c34 40 34 92 0 132" fill="none" stroke="#5a3d28" stroke-width="6" stroke-linecap="round"/>
  <rect x="176" y="350" width="160" height="92" rx="18" fill="#1c1c1c" stroke="#5a3d28" stroke-width="5"/>
  <path d="M206 350h100l-8 24H214z" fill="#fffaf3" stroke="#5a3d28" stroke-width="4"/>
  <path d="M248 374v68" stroke="#5a3d28" stroke-width="5"/>
  <ellipse cx="214" cy="430" rx="28" ry="22" fill="#a66b42" stroke="#5a3d28" stroke-width="5"/>
  <ellipse cx="298" cy="430" rx="28" ry="22" fill="#a66b42" stroke="#5a3d28" stroke-width="5"/>
  <ellipse cx="206" cy="430" rx="8" ry="10" fill="#1c1c1c"/>
  <ellipse cx="222" cy="434" rx="8" ry="10" fill="#1c1c1c"/>
  <ellipse cx="290" cy="434" rx="8" ry="10" fill="#1c1c1c"/>
  <ellipse cx="306" cy="430" rx="8" ry="10" fill="#1c1c1c"/>
</svg>
